<svg xmlns:xlink="http://www.w3.org/1999/xlink" xmlns="http://www.w3.org/2000/svg" version="1.1" fill="none" stroke="none" stroke-linecap="square" stroke-miterlimit="10" viewBox="0 0 1024 768"><clipPath id="p.0"><path d="m0 0l1024.0 0l0 768.0l-1024.0 0l0 -768.0z" clip-rule="nonzero"/></clipPath><g clip-path="url(#p.0)"><path fill="#000000" fill-opacity="0.0" d="m0 0l1024.0 0l0 768.0l-1024.0 0z" fill-rule="evenodd"/><path fill="#000000" fill-opacity="0.0" d="m130.74016 313.32547l762.51965 0l0 261.79526l-762.51965 0z" fill-rule="evenodd"/><path fill="#57d9b8" d="m221.23146 532.51294l0 -181.8281l11.65625 0l0 181.8281l-11.65625 0zm39.20311 -127.28122q-1.28125 -10.796875 -10.374985 -16.75q-9.078125 -5.96875 -22.296875 -5.96875q-9.65625 0 -16.875 3.125q-7.203125 3.125 -11.21875 8.59375q-4.0 5.46875 -4.0 12.421875q0 5.828125 2.796875 9.984375q2.8125 4.15625 7.203125 6.890625q4.40625 2.734375 9.234375 4.46875q4.84375 1.734375 8.890625 2.8125l14.765625 3.96875q5.6875 1.5 12.671875 4.125q6.9999847 2.625 13.42186 7.140625q6.4375 4.5 10.625 11.53125q4.1875 7.03125 4.1875 17.265625q0 11.78125 -6.140625 21.296875q-6.140625 9.515625 -17.906235 15.140625q-11.75 5.6093445 -28.5 5.6093445q-15.625 0 -27.03125 -5.0468445q-11.390625 -5.046875 -17.890625 -14.0625q-6.5 -9.015625 -7.359375 -20.953125l18.1875 0q0.703125 8.234375 5.5625 13.609375q4.875 5.359375 12.359375 7.953125q7.5 2.578125 16.171875 2.578125q10.078125 0 18.09375 -3.296875q8.03125 -3.296875 12.718735 -9.21875q4.6875 -5.9375 4.6875 -13.890625q0 -7.25 -4.046875 -11.796875q-4.0468597 -4.546875 -10.656235 -7.390625q-6.59375 -2.84375 -14.265625 -4.96875l-17.90625 -5.109375q-17.03125 -4.90625 -26.984375 -13.984375q-9.9375 -9.09375 -9.9375 -23.796875q0 -12.21875 6.640625 -21.34375q6.640625 -9.125 17.890625 -14.203125q11.265625 -5.078125 25.1875 -5.078125q14.0625 0 25.0 5.015625q10.937485 5.0 17.35936 13.671875q6.421875 8.65625 6.78125 19.65625l-17.046875 0zm77.838104 111.65622q-10.359375 0 -18.8125 -3.9375q-8.453125 -3.9530945 -13.421875 -11.4374695q-4.96875 -7.5 -4.96875 -18.15625q0 -9.375 3.6875 -15.234375q3.6875 -5.859375 9.859375 -9.1875q6.1875 -3.34375 13.671875 -5.015625q7.5 -1.671875 15.109375 -2.65625q9.9375 -1.28125 16.140625 -1.953125q6.21875 -0.6875 9.09375 -2.3125q2.890625 -1.640625 2.890625 -5.6875l0 -0.5625q0 -10.515625 -5.71875 -16.328125q-5.71875 -5.828125 -17.296875 -5.828125q-12.0 0 -18.828125 5.25q-6.8125 5.25 -9.578125 11.21875l-15.90625 -5.671875q4.25 -9.953125 11.390625 -15.515625q7.140625 -5.578125 15.625 -7.8125q8.484375 -2.25 16.734375 -2.25q5.25 0 12.09375 1.25q6.859375 1.234375 13.28125 5.078125q6.4375 3.828125 10.6875 11.578125q4.265625 7.734375 4.265625 20.734375l0 71.87497l-16.75 0l0 -14.7655945l-0.859375 0q-1.703125 3.546875 -5.6875 7.59375q-3.96875 4.046875 -10.578125 6.8905945q-6.609375 2.84375 -16.125 2.84375zm2.5625 -15.0624695q9.9375 0 16.796875 -3.90625q6.859375 -3.90625 10.375 -10.078125q3.515625 -6.1875 3.515625 -13.0l0 -15.34375q-1.078125 1.28125 -4.671875 2.3125q-3.578125 1.03125 -8.234375 1.78125q-4.640625 0.734375 -9.015625 1.265625q-4.359375 0.53125 -7.0625 0.890625q-6.53125 0.84375 -12.1875 2.734375q-5.640625 1.875 -9.09375 5.609375q-3.4375 3.734375 -3.4375 10.125q0 8.734375 6.5 13.171875q6.5 4.4375 16.515625 4.4375zm163.3537 -96.59375l-40.34375 109.09372l-17.046875 0l-40.34375 -109.09372l18.1875 0l30.109375 86.9375l1.140625 0l30.109375 -86.9375l18.1875 0z" fill-rule="nonzero"/><path fill="#dfdbd8" d="m615.55255 405.23172l-40.34375 109.09372l-17.046875 0l-40.34375 -109.09372l18.1875 0l30.109375 86.9375l1.140625 0l30.109375 -86.9375l18.1875 0zm22.160583 109.09372l0 -109.09372l16.765625 0l0 109.09372l-16.765625 0zm8.515625 -127.265594q-4.890625 0 -8.40625 -3.34375q-3.515625 -3.34375 -3.515625 -8.03125q0 -4.6875 3.515625 -8.015625q3.515625 -3.34375 8.40625 -3.34375q4.90625 0 8.421875 3.34375q3.515625 3.328125 3.515625 8.015625q0 4.6875 -3.515625 8.03125q-3.515625 3.34375 -8.421875 3.34375z" fill-rule="nonzero"/><path fill="#57d9b8" d="m730.8907 516.59106q-15.765625 0 -27.171875 -6.9843445q-11.390625 -7.0 -17.53125 -19.609375q-6.140625 -12.609375 -6.140625 -29.359375q0 -16.765625 6.140625 -29.578125q6.140625 -12.828125 17.1875 -20.03125q11.046875 -7.21875 25.8125 -7.21875q8.515625 0 16.828125 2.84375q8.3125 2.84375 15.125 9.203125q6.828125 6.359375 10.875 16.796875q4.046875 10.4375 4.046875 25.703125l0 7.109375l-84.09375 0l0 -14.5l67.046875 0q0 -9.21875 -3.65625 -16.46875q-3.65625 -7.25 -10.375 -11.4375q-6.703125 -4.1875 -15.796875 -4.1875q-10.015625 0 -17.296875 4.9375q-7.28125 4.9375 -11.1875 12.828125q-3.90625 7.875 -3.90625 16.890625l0 9.65625q0 12.359375 4.296875 20.921875q4.296875 8.5625 11.96875 13.0q7.671875 4.4375 17.828125 4.4375q6.609375 0 11.96875 -1.875q5.359375 -1.890625 9.265625 -5.6875q3.90625 -3.796875 6.046875 -9.484375l16.1875 4.546875q-2.5625 8.234375 -8.59375 14.453125q-6.03125 6.21875 -14.921875 9.6562195q-8.875 3.4375 -19.953125 3.4375zm70.74292 -2.265625l0 -109.09372l16.1875 0l0 16.484375l1.140625 0q2.984375 -8.09375 10.796875 -13.140625q7.8125 -5.046875 17.609375 -5.046875q1.84375 0 4.609375 0.078125q2.78125 0.0625 4.203125 0.203125l0 17.046875q-0.859375 -0.203125 -3.875 -0.671875q-3.015625 -0.46875 -6.359375 -0.46875q-7.953125 0 -14.171875 3.3125q-6.203125 3.296875 -9.796875 9.09375q-3.578125 5.78125 -3.578125 13.171875l0 69.03122l-16.765625 0z" fill-rule="nonzero"/></g></svg>